<svg xmlns="http://www.w3.org/2000/svg" viewBox="0 0 69.74 59.03"><title>search</title><g id="Layer_2" data-name="Layer 2"><g id="Layer_1-2" data-name="Layer 1"><path class="cls-1" d="M65.81,59a1.25,1.25,0,0,1-.74-.24L40,40.52A23.58,23.58,0,0,1,5.12,38.23,23.57,23.57,0,0,1,26.26.15,23.58,23.58,0,0,1,44.35,34.74a1.25,1.25,0,0,1-2.2-1.19A21.08,21.08,0,1,0,2.64,21.17,21.08,21.08,0,0,0,38.91,38a1.25,1.25,0,0,1,1.64-.15L65.45,56l1.38-2.27L45.7,38a1.25,1.25,0,1,1,1.49-2l22,16.41A1.25,1.25,0,0,1,69.56,54l-2.68,4.4a1.25,1.25,0,0,1-.82.58Z"/></g></g></svg>